<svg width="51" height="51" viewBox="0 0 51 51" fill="none" xmlns="http://www.w3.org/2000/svg">
<path d="M25.669 0.487549C11.8591 0.487549 0.669189 11.6775 0.669189 25.4873C0.669189 39.2972 11.8591 50.4871 25.669 50.4871C39.4789 50.4871 50.6688 39.2972 50.6688 25.4873C50.6688 11.6875 39.4689 0.487549 25.669 0.487549ZM25.669 46.4872C14.0891 46.4872 4.66916 37.0672 4.66916 25.4873C4.66916 13.9074 14.0891 4.48752 25.669 4.48752C37.2489 4.48752 46.6688 13.9074 46.6688 25.4873C46.6688 37.0672 37.2389 46.4872 25.669 46.4872Z" fill="black"/>
<path d="M34.8189 23.4873H27.6689V11.1675C27.6689 10.0675 26.7689 9.16748 25.6689 9.16748C24.5689 9.16748 23.6689 10.0675 23.6689 11.1675V25.4873C23.6689 26.5873 24.5689 27.4873 25.6689 27.4873H34.8189C35.9189 27.4873 36.8188 26.5873 36.8188 25.4873C36.8188 24.3873 35.9189 23.4873 34.8189 23.4873Z" fill="black"/>
</svg>
