<svg width="51" height="51" viewBox="0 0 51 51" fill="none" xmlns="http://www.w3.org/2000/svg">
<path d="M25.458 0.198364C11.6482 0.198364 0.458252 11.3883 0.458252 25.1982C0.458252 39.008 11.6482 50.198 25.458 50.198C39.2679 50.198 50.4578 39.008 50.4578 25.1982C50.4578 11.3883 39.2679 0.198364 25.458 0.198364ZM25.458 46.198C13.8781 46.198 4.45822 36.7781 4.45822 25.1982C4.45822 13.6183 13.8781 4.19833 25.458 4.19833C37.038 4.19833 46.4579 13.6183 46.4579 25.1982C46.4579 36.7781 37.038 46.198 25.458 46.198Z" fill="black"/>
<path d="M32.418 23.7781L23.3381 14.6982C22.5581 13.9182 21.2881 13.9182 20.5081 14.6982C19.7281 15.4782 19.7281 16.7482 20.5081 17.5282L28.188 25.2081L20.5081 32.8881C19.7281 33.6681 19.7281 34.938 20.5081 35.718C20.8981 36.108 21.4081 36.308 21.9181 36.308C22.4281 36.308 22.9381 36.108 23.3281 35.718L32.408 26.6381C32.798 26.2481 32.998 25.7281 32.998 25.2181C32.998 24.6881 32.808 24.1681 32.418 23.7781Z" fill="black"/>
</svg>
