<svg width="51" height="51" viewBox="0 0 51 51" fill="none" xmlns="http://www.w3.org/2000/svg">
<path d="M25.1375 0.198364C11.3276 0.198364 0.137695 11.3883 0.137695 25.1982C0.137695 39.008 11.3276 50.198 25.1375 50.198C38.9474 50.198 50.1373 39.008 50.1373 25.1982C50.1373 11.3883 38.9474 0.198364 25.1375 0.198364ZM25.1375 46.198C13.5576 46.198 4.13766 36.7781 4.13766 25.1982C4.13766 13.6183 13.5576 4.19833 25.1375 4.19833C36.7174 4.19833 46.1373 13.6183 46.1373 25.1982C46.1373 36.7781 36.7174 46.198 25.1375 46.198Z" fill="black"/>
<path d="M34.4175 18.6483H15.8576C14.7577 18.6483 13.8577 19.5482 13.8577 20.6482C13.8577 21.7482 14.7577 22.6482 15.8576 22.6482H34.4175C35.5175 22.6482 36.4175 21.7482 36.4175 20.6482C36.4175 19.5482 35.5275 18.6483 34.4175 18.6483Z" fill="black"/>
<path d="M34.4175 27.7481H15.8576C14.7577 27.7481 13.8577 28.6481 13.8577 29.7481C13.8577 30.8481 14.7577 31.7481 15.8576 31.7481H34.4175C35.5175 31.7481 36.4175 30.8481 36.4175 29.7481C36.4175 28.6481 35.5275 27.7481 34.4175 27.7481Z" fill="black"/>
</svg>
