<svg width="53" height="50" viewBox="0 0 53 50" fill="none" xmlns="http://www.w3.org/2000/svg">
<path d="M26.6689 3.99997C26.6989 3.99997 26.7189 4.00997 26.7289 4.03997L31.6288 13.9799C32.8088 16.3599 35.0788 18.0099 37.7088 18.3998L48.7087 19.9998C48.7287 20.0198 48.7487 20.0698 48.7187 20.1198L40.7788 27.8598C38.8788 29.7098 38.0088 32.3897 38.4588 34.9997L40.3388 45.9596C40.3288 45.9796 40.2988 46.0096 40.2488 46.0096C40.2388 46.0096 40.2288 46.0096 40.2188 46.0096L30.4088 40.8497C29.2589 40.2397 27.9589 39.9197 26.6489 39.9197C25.3489 39.9197 24.0489 40.2397 22.8889 40.8497L13.069 45.9996C13.049 45.9996 12.999 45.9596 12.999 45.9096L14.869 34.9897C15.319 32.3697 14.449 29.6998 12.549 27.8498L4.58906 20.0898C4.58906 20.0698 4.59906 20.0098 4.65906 19.9898L15.629 18.3998C18.2589 18.0199 20.5289 16.3699 21.7089 13.9799L26.6289 4.00997C26.6189 4.00997 26.6389 3.99997 26.6689 3.99997ZM26.6689 0C25.2189 0 23.7689 0.759994 23.0189 2.26998L18.119 12.2099C17.529 13.4099 16.379 14.2399 15.049 14.4399L4.07907 16.0299C0.739095 16.5199 -0.590896 20.6198 1.81908 22.9698L9.75902 30.7097C10.719 31.6497 11.159 32.9897 10.929 34.3097L9.05902 45.2296C8.60902 47.8596 10.699 49.9996 13.069 49.9996C13.699 49.9996 14.339 49.8496 14.969 49.5196L24.7789 44.3596C25.3689 44.0496 26.0189 43.8896 26.6689 43.8896C27.3189 43.8896 27.9689 44.0496 28.5589 44.3596L38.3688 49.5196C38.9888 49.8496 39.6388 49.9996 40.2688 49.9996C42.6387 49.9996 44.7287 47.8596 44.2787 45.2296L42.4088 34.3097C42.1788 32.9897 42.6187 31.6397 43.5787 30.7097L51.5187 22.9698C53.9387 20.6098 52.5987 16.5099 49.2587 16.0299L38.2888 14.4399C36.9588 14.2499 35.8188 13.4099 35.2188 12.2099L30.3189 2.26998C29.5689 0.759994 28.1189 0 26.6689 0Z" fill="black"/>
</svg>
