<svg width="40" height="51" viewBox="0 0 40 51" fill="none" xmlns="http://www.w3.org/2000/svg">
<path d="M19.9998 4.43918C28.2897 4.43918 35.0397 11.1891 35.0397 19.4791C35.0397 22.609 34.0897 25.609 32.2897 28.149L32.0697 28.449V28.459C30.7297 30.259 28.5597 33.1789 26.2197 36.3389C24.1698 39.1189 21.9198 42.1589 19.9998 44.7288L7.9499 28.499C5.98992 25.889 4.94993 22.769 4.94993 19.489C4.95993 11.1891 11.7099 4.43918 19.9998 4.43918ZM19.9998 0.439209C9.49989 0.439209 0.959961 8.97914 0.959961 19.4791C0.959961 23.639 2.26995 27.579 4.75993 30.8989L18.8298 49.8488C18.8698 49.8988 18.9198 49.9088 18.9598 49.9488C19.2798 50.2888 19.6498 50.4388 20.0198 50.4388C20.4698 50.4388 20.8998 50.2188 21.1798 49.8488C25.2298 44.4389 32.6597 34.3489 35.5097 30.539L35.5297 30.519C37.8297 27.289 39.0496 23.479 39.0496 19.489C39.0396 8.98913 30.4997 0.439209 19.9998 0.439209Z" fill="black"/>
</svg>
