<svg width="33" height="51" viewBox="0 0 33 51" fill="none" xmlns="http://www.w3.org/2000/svg">
<path d="M25.3382 18.2374C24.1582 18.2374 23.0482 18.5274 22.0682 19.0274L14.0583 11.0175C14.5583 10.0375 14.8483 8.92749 14.8483 7.7475C14.8483 3.74753 11.6083 0.507568 7.60832 0.507568C3.60836 0.507568 0.368378 3.74753 0.368378 7.7475C0.368378 11.7475 3.60836 14.9874 7.60832 14.9874C8.97831 14.9874 10.2483 14.5975 11.3383 13.9475L19.1482 21.7574C18.4882 22.8474 18.1082 24.1174 18.1082 25.4873C18.1082 26.7573 18.4382 27.9573 19.0182 28.9973L11.0983 36.9173C10.0583 36.3373 8.86831 36.0073 7.58832 36.0073C3.58835 36.0073 0.348389 39.2472 0.348389 43.2472C0.348389 47.2472 3.58835 50.4871 7.58832 50.4871C11.5883 50.4871 14.8283 47.2472 14.8283 43.2472C14.8283 41.9772 14.4983 40.7772 13.9183 39.7372L21.8382 31.8173C22.8782 32.3973 24.0782 32.7273 25.3482 32.7273C29.3481 32.7273 32.5881 29.4873 32.5881 25.4873C32.5881 21.4774 29.3481 18.2374 25.3382 18.2374ZM4.35835 7.73749C4.35835 5.9475 5.81834 4.49753 7.59833 4.49753C9.37831 4.49753 10.8383 5.9575 10.8383 7.73749C10.8383 9.51747 9.37831 10.9775 7.59833 10.9775C5.81834 10.9775 4.35835 9.52747 4.35835 7.73749ZM7.57832 46.4872C5.78834 46.4872 4.33835 45.0272 4.33835 43.2472C4.33835 41.4672 5.79834 40.0072 7.57832 40.0072C9.35831 40.0072 10.8183 41.4672 10.8183 43.2472C10.8183 45.0272 9.35831 46.4872 7.57832 46.4872ZM25.3382 28.7273C23.5482 28.7273 22.0982 27.2673 22.0982 25.4873C22.0982 23.7074 23.5582 22.2474 25.3382 22.2474C27.1182 22.2474 28.5782 23.7074 28.5782 25.4873C28.5782 27.2673 27.1282 28.7273 25.3382 28.7273Z" fill="black"/>
</svg>
