<svg width="37" height="51" viewBox="0 0 37 51" fill="none" xmlns="http://www.w3.org/2000/svg">
<path d="M31.9997 4.48752V45.5472L22.6398 39.2172C22.5598 39.1672 22.4798 39.1072 22.3898 39.0572C21.0498 38.2872 19.5398 37.8873 17.9999 37.8873C16.4699 37.8873 14.9499 38.2972 13.6099 39.0572C13.5199 39.1072 13.4399 39.1572 13.3599 39.2172L3.99997 45.5472V4.48752H31.9997ZM33.0297 0.487549H2.96998C1.32999 0.487549 0 1.87754 0 3.58753V47.3772C0 49.1872 1.41999 50.4871 2.97997 50.4871C3.45997 50.4871 3.94997 50.3672 4.40996 50.0972L15.6099 42.5272C16.3599 42.0972 17.1799 41.8872 18.0099 41.8872C18.8398 41.8872 19.6598 42.0972 20.4098 42.5272L31.6097 50.0972C32.0697 50.3672 32.5597 50.4871 33.0397 50.4871C34.5997 50.4871 36.0197 49.1872 36.0197 47.3772V3.59754C35.9997 1.87755 34.6697 0.487549 33.0297 0.487549Z" fill="black"/>
</svg>
