<svg width="51" height="31" viewBox="0 0 51 31" fill="none" xmlns="http://www.w3.org/2000/svg">
<path d="M25.1372 8.02899C21.0373 8.02899 17.7173 11.349 17.7173 15.4489C17.7173 19.5489 21.0373 22.8689 25.1372 22.8689C29.2372 22.8689 32.5572 19.5489 32.5572 15.4489C32.5572 11.349 29.2372 8.02899 25.1372 8.02899ZM25.1372 18.8589C23.2573 18.8589 21.7173 17.3289 21.7173 15.4389C21.7173 13.5489 23.2473 12.019 25.1372 12.019C27.0272 12.019 28.5572 13.5489 28.5572 15.4389C28.5572 17.3289 27.0272 18.8589 25.1372 18.8589Z" fill="black"/>
<path d="M49.6272 14.059C46.3873 10.349 36.6473 0.439087 25.1474 0.439087C13.6475 0.439087 3.90762 10.339 0.667642 14.059C-0.0223521 14.849 -0.0223521 16.039 0.667642 16.8289C3.90762 20.5389 13.6475 30.4488 25.1474 30.4488C36.6473 30.4488 46.3873 20.5489 49.6272 16.8289C50.3172 16.039 50.3172 14.849 49.6272 14.059ZM25.1374 26.4389C16.3175 26.4389 8.28756 19.1289 4.80759 15.439C8.29756 11.749 16.3175 4.43905 25.1374 4.43905C33.9574 4.43905 41.9873 11.749 45.4673 15.439C41.9873 19.1289 33.9674 26.4389 25.1374 26.4389Z" fill="black"/>
</svg>
