<svg width="50" height="51" viewBox="0 0 50 51" fill="none" xmlns="http://www.w3.org/2000/svg">
<path d="M34.6297 17.4883L21.4498 30.6681L15.3798 24.5982C14.5998 23.8182 13.3298 23.8182 12.5498 24.5982C11.7698 25.3782 11.7698 26.6482 12.5498 27.4282L20.0298 34.9081C20.4198 35.2981 20.9298 35.4981 21.4398 35.4981C21.9498 35.4981 22.4598 35.2981 22.8498 34.9081L37.4396 20.3182C38.2196 19.5382 38.2196 18.2682 37.4396 17.4883C36.6596 16.7083 35.4097 16.7083 34.6297 17.4883Z" fill="black"/>
<path d="M24.9998 0.198364C11.1899 0.198364 0 11.3883 0 25.1982C0 39.008 11.1899 50.198 24.9998 50.198C38.8097 50.198 49.9996 39.008 49.9996 25.1982C49.9996 11.3883 38.8097 0.198364 24.9998 0.198364ZM24.9998 46.198C13.4199 46.198 3.99997 36.7781 3.99997 25.1982C3.99997 13.6183 13.4199 4.19833 24.9998 4.19833C36.5797 4.19833 45.9996 13.6183 45.9996 25.1982C45.9996 36.7781 36.5797 46.198 24.9998 46.198Z" fill="black"/>
</svg>
