<svg width="44" height="45" viewBox="0 0 44 45" fill="none" xmlns="http://www.w3.org/2000/svg">
<path d="M29.6774 22.6898C32.5973 20.4298 34.4973 16.8999 34.4973 12.9199C34.4973 6.09996 28.9674 0.570007 22.1474 0.570007C15.3275 0.570007 9.79753 6.09996 9.79753 12.9199C9.79753 16.8999 11.6875 20.4298 14.6175 22.6898C6.56757 25.7398 0.807617 33.5197 0.807617 42.6297C0.807617 43.7297 1.70761 44.6296 2.8076 44.6296C3.90759 44.6296 4.80758 43.7297 4.80758 42.6297C4.80758 33.0697 12.5875 25.2898 22.1474 25.2898C31.7074 25.2898 39.4873 33.0697 39.4873 42.6297C39.4873 43.7297 40.3873 44.6296 41.4873 44.6296C42.5873 44.6296 43.4873 43.7297 43.4873 42.6297C43.4773 33.5197 37.7273 25.7398 29.6774 22.6898ZM22.1375 4.56997C26.7374 4.56997 30.4874 8.31994 30.4874 12.9199C30.4874 17.5199 26.7374 21.2698 22.1375 21.2698C17.5375 21.2698 13.7875 17.5199 13.7875 12.9199C13.7975 8.31994 17.5375 4.56997 22.1375 4.56997Z" fill="black"/>
</svg>
