<svg width="48" height="47" viewBox="0 0 48 47" fill="none" xmlns="http://www.w3.org/2000/svg">
<path d="M43.9871 3.64753C39.5772 -0.762436 32.3872 -0.772436 27.9773 3.64753L20.3973 11.2275C15.9874 15.6374 15.9874 22.8274 20.3973 27.2373C21.1773 28.0173 22.4473 28.0173 23.2273 27.2373C24.0073 26.4573 24.0073 25.1874 23.2273 24.4074C20.3773 21.5574 20.3773 16.9074 23.2273 14.0574L30.8072 6.47752C33.6572 3.62754 38.3072 3.62754 41.1572 6.47752C44.0071 9.3275 44.0071 13.9774 41.1572 16.8274L33.5772 24.4074C32.7972 25.1874 32.7972 26.4573 33.5772 27.2373C33.9672 27.6273 34.4772 27.8273 34.9872 27.8273C35.4972 27.8273 36.0072 27.6273 36.3972 27.2373L43.9771 19.6574C48.4071 15.2374 48.4071 8.05749 43.9871 3.64753Z" fill="black"/>
<path d="M25.0574 19.7574C24.2774 20.5374 24.2774 21.8074 25.0574 22.5874C26.4373 23.9674 27.1873 25.7973 27.1873 27.7673C27.1873 29.7373 26.4273 31.5673 25.0574 32.9473L17.4774 40.5272C14.6175 43.3772 9.97749 43.3772 7.12751 40.5272C5.74752 39.1472 4.99753 37.3173 4.99753 35.3473C4.99753 33.3773 5.75752 31.5473 7.12751 30.1673L14.7074 22.5874C15.4874 21.8074 15.4874 20.5374 14.7074 19.7574C13.9274 18.9774 12.6575 18.9774 11.8775 19.7574L4.29752 27.3373C2.16754 29.4673 0.997559 32.3073 0.997559 35.3373C0.997559 38.3672 2.16754 41.2072 4.29752 43.3372C6.5075 45.5472 9.40748 46.6472 12.2975 46.6472C15.1874 46.6472 18.0974 45.5472 20.2974 43.3372L27.8773 35.7573C30.0073 33.6273 31.1773 30.7873 31.1773 27.7573C31.1773 24.7274 30.0073 21.8874 27.8773 19.7574C27.0973 18.9674 25.8374 18.9674 25.0574 19.7574Z" fill="black"/>
</svg>
