<svg width="51" height="46" viewBox="0 0 51 46" fill="none" xmlns="http://www.w3.org/2000/svg">
<path d="M44.6688 4.90915C45.7488 4.90915 46.6688 5.82914 46.6688 6.90913V32.6589C46.6688 33.7389 45.7488 34.6589 44.6688 34.6589H22.729C21.829 34.6589 20.959 34.9589 20.249 35.5189L14.4791 40.0689V38.6589C14.4791 36.4489 12.6891 34.6589 10.4791 34.6589H6.65915C5.57915 34.6589 4.65916 33.7389 4.65916 32.6589V6.90913C4.65916 5.82914 5.57915 4.90915 6.65915 4.90915H44.6688V4.90915ZM44.6688 0.90918H6.66914C3.36917 0.90918 0.669189 3.60916 0.669189 6.90913V32.6589C0.669189 35.9589 3.36917 38.6589 6.66914 38.6589H10.4891V43.8188C10.4891 43.9088 10.4891 43.9888 10.4991 44.0788C10.6191 45.2488 11.6291 45.9688 12.6891 45.9688C13.1691 45.9688 13.6691 45.8188 14.0891 45.4888L22.739 38.6589H44.6788C47.9788 38.6589 50.6788 35.9589 50.6788 32.6589V6.90913C50.6688 3.60916 47.9688 0.90918 44.6688 0.90918Z" fill="black"/>
</svg>
