<svg width="42" height="50" viewBox="0 0 42 50" fill="none" xmlns="http://www.w3.org/2000/svg">
<path d="M20.9997 3.99997C21.5897 3.99997 22.1497 4.22997 22.5597 4.64996L37.1396 19.2298C37.6496 19.7398 37.7696 20.3198 37.7796 20.7298L37.7896 20.9098L37.8096 21.0898C37.8196 21.2098 37.8296 21.2998 37.8296 21.3598V43.7896C37.8296 45.0096 36.8396 45.9996 35.6196 45.9996H6.37987C5.15988 45.9996 4.16989 45.0096 4.16989 43.7896V21.3598C4.16989 21.2898 4.17989 21.1998 4.18989 21.0898L4.20989 20.9098L4.21989 20.7298C4.22989 20.3298 4.34989 19.7398 4.85988 19.2298L19.4398 4.64996C19.8498 4.22997 20.4098 3.99997 20.9997 3.99997ZM20.9997 0C19.4098 0 17.8198 0.609995 16.6098 1.81999L2.02991 16.3999C0.859916 17.5699 0.259921 19.0798 0.219921 20.6098C0.189921 20.8598 0.169922 21.1098 0.169922 21.3598V43.7896C0.169922 47.2196 2.9499 49.9996 6.37987 49.9996H35.6296C39.0596 49.9996 41.8396 47.2196 41.8396 43.7896V21.3598C41.8396 21.1098 41.8196 20.8598 41.7896 20.6098C41.7496 19.0798 41.1496 17.5599 39.9796 16.3999L25.3897 1.81999C24.1797 0.609995 22.5897 0 20.9997 0Z" fill="black"/>
</svg>
