<svg width="51" height="44" viewBox="0 0 51 44" fill="none" xmlns="http://www.w3.org/2000/svg">
<path d="M37.118 4.56997C40.2279 4.56997 42.5179 5.32997 44.1179 6.88996C45.6879 8.42994 46.4579 10.6299 46.4579 13.6299C46.4579 16.6199 44.7079 19.8798 41.2679 23.3298L25.4581 38.5497L9.59819 23.2498L9.47818 23.1298L9.33818 23.0098C9.33818 23.0098 9.21818 22.9098 8.92818 22.6098C8.81818 22.4998 8.47819 22.1298 7.6382 21.0698C7.04821 20.3298 6.50821 19.5599 6.04822 18.7899C5.64822 18.1199 5.26822 17.2499 4.91822 16.2199C4.61822 15.3099 4.46823 14.4399 4.46823 13.6299C4.46823 10.6299 5.22822 8.42994 6.80821 6.88996C8.40819 5.32997 10.6982 4.56997 13.8081 4.56997C14.5281 4.56997 15.2881 4.69997 16.0681 4.95997C16.9381 5.24997 17.7481 5.63997 18.4881 6.12996C19.4081 6.73996 20.2081 7.30995 20.8481 7.81995C21.4781 8.31994 22.0781 8.85994 22.6381 9.41993L25.4681 12.2499L28.298 9.41993C28.858 8.85994 29.468 8.31994 30.088 7.81995C30.738 7.29995 31.538 6.72996 32.458 6.12996C33.198 5.64997 34.008 5.24997 34.868 4.96997C35.638 4.69997 36.408 4.56997 37.118 4.56997ZM37.118 0.570007C35.968 0.570007 34.788 0.770006 33.588 1.17C32.388 1.57 31.268 2.10999 30.238 2.78999C29.208 3.46998 28.318 4.10998 27.578 4.69997C26.838 5.29997 26.1281 5.92996 25.4581 6.59996C24.7881 5.92996 24.0781 5.29997 23.3381 4.69997C22.5981 4.09998 21.7081 3.46998 20.6781 2.78999C19.6481 2.10999 18.5281 1.57 17.3281 1.17C16.1281 0.770006 14.9481 0.570007 13.7982 0.570007C9.62819 0.570007 6.36821 1.72 4.00823 4.02998C1.64825 6.33996 0.468262 9.53993 0.468262 13.6299C0.468262 14.8799 0.688264 16.1599 1.12826 17.4799C1.56826 18.7999 2.05824 19.9298 2.61824 20.8598C3.17823 21.7898 3.80824 22.6998 4.51823 23.5798C5.22823 24.4598 5.73822 25.0698 6.06822 25.4098C6.39822 25.7398 6.64821 25.9898 6.8382 26.1398L24.2481 42.9397C24.5781 43.2697 24.9881 43.4397 25.478 43.4397C25.958 43.4397 26.3681 43.2697 26.708 42.9397L44.0879 26.1998C48.3479 21.9398 50.4778 17.7599 50.4778 13.6399C50.4778 9.54993 49.2979 6.34996 46.9379 4.03998C44.5479 1.72 41.2879 0.570007 37.118 0.570007Z" fill="black"/>
</svg>
