<svg width="48" height="48" viewBox="0 0 48 48" fill="none" xmlns="http://www.w3.org/2000/svg">
<path d="M20.5081 4.95913C29.068 4.95913 36.038 11.9291 36.038 20.489C36.038 29.0489 29.068 36.0189 20.5081 36.0189C11.9482 36.0189 4.97824 29.0489 4.97824 20.489C4.97824 11.9291 11.9382 4.95913 20.5081 4.95913ZM20.5081 0.959167C9.7182 0.959167 0.978271 9.69909 0.978271 20.489C0.978271 31.2789 9.7182 40.0188 20.5081 40.0188C31.298 40.0188 40.0379 31.2789 40.0379 20.489C40.0379 9.69909 31.288 0.959167 20.5081 0.959167Z" fill="black"/>
<path d="M45.9383 47.9288C45.4283 47.9288 44.9183 47.7288 44.5283 47.3388L31.5484 34.3589C30.7684 33.5789 30.7684 32.3089 31.5484 31.5289C32.3284 30.7489 33.5984 30.7489 34.3784 31.5289L47.3582 44.5088C48.1382 45.2888 48.1382 46.5588 47.3582 47.3388C46.9682 47.7288 46.4583 47.9288 45.9383 47.9288Z" fill="black"/>
</svg>
